<svg xmlns="http://www.w3.org/2000/svg" width="1200" height="800" viewBox="0 0 1200 800" fill="none">
  <rect width="1200" height="800" rx="28" fill="#0B1220"/>
  <rect x="24" y="24" width="1152" height="752" rx="20" fill="#111827" stroke="#334155" stroke-width="2"/>
  <rect x="70" y="70" width="1060" height="100" rx="12" fill="#1E293B"/>
  <text x="100" y="132" fill="#F8FAFC" font-size="42" font-family="Arial, sans-serif" font-weight="700">Fire Safety Installation Compliance</text>
  <text x="100" y="175" fill="#94A3B8" font-size="24" font-family="Arial, sans-serif">System Audit and Conformance Certificate</text>
  <rect x="70" y="230" width="860" height="16" rx="8" fill="#334155"/>
  <rect x="70" y="262" width="780" height="16" rx="8" fill="#334155"/>
  <rect x="70" y="294" width="820" height="16" rx="8" fill="#334155"/>
  <rect x="70" y="326" width="680" height="16" rx="8" fill="#334155"/>
  <rect x="70" y="390" width="340" height="120" rx="14" fill="#1F2937" stroke="#475569"/>
  <text x="95" y="440" fill="#E2E8F0" font-size="24" font-family="Arial, sans-serif" font-weight="700">Audit Score</text>
  <text x="95" y="482" fill="#22C55E" font-size="42" font-family="Arial, sans-serif" font-weight="700">97.4%</text>
  <rect x="450" y="390" width="360" height="120" rx="14" fill="#1F2937" stroke="#475569"/>
  <text x="475" y="440" fill="#E2E8F0" font-size="24" font-family="Arial, sans-serif" font-weight="700">Risk Grade</text>
  <text x="475" y="482" fill="#38BDF8" font-size="42" font-family="Arial, sans-serif" font-weight="700">A+</text>
  <circle cx="980" cy="470" r="92" fill="#B91C1C"/>
  <text x="932" y="480" fill="#fff" font-size="26" font-family="Arial, sans-serif" font-weight="700">PASS</text>
  <text x="70" y="620" fill="#E2E8F0" font-size="28" font-family="Arial, sans-serif">Cert ID: FSI-2026-4432</text>
  <text x="70" y="664" fill="#E2E8F0" font-size="28" font-family="Arial, sans-serif">Issued By: National Safety Board</text>
  <text x="70" y="708" fill="#E2E8F0" font-size="28" font-family="Arial, sans-serif">Valid Till: Aug 2028</text>
</svg>
